
<svg version="1.1" id="レイヤー_1" xmlns="http://www.w3.org/2000/svg" xmlns:xlink="http://www.w3.org/1999/xlink" x="0px"
	y="0px" width="2000px" height="2000px" viewBox="0 0 2000 2000" enable-background="new 0 0 2000 2000" xml:space="preserve">
<rect fill="#FFFFFF" width="2000" height="2000"/>
<g>
	<defs>
		<path id="SVGID_1_" d="M23.391,1000.26c0,276.155,115.104,525.417,299.938,702.456
			c-109.043-128.877-176.133-294.306-179.473-474.826c-3.337-180.311,63.107-359.22,162.874-507.846
			C381.879,608.08,482.32,522.87,594.496,454.305c-97.029,64.289-183.633,142.56-250.315,241.902
			c-99.765,148.633-166.208,327.538-162.871,507.852c7.584,410.021,344.011,742.235,754.095,744.931
			c143.737,0.94,278.273-38.085,393.212-106.573c-110.195,74.713-241.058,121.229-382.229,129.18
			c16.424,0.825,32.957,1.246,49.587,1.246c537.142,0,972.58-435.44,972.58-972.582c0-438.266-289.89-808.809-688.377-930.383
			c80.241,130.82,136.604,278.374,141.415,431.369c5.219,165.946-66.54,304.525-193.835,411.119
			c-121.816,102.013-291.912,149.94-443.397,197.86c-151.481,47.928-249.986,88.166-299.806,292.553
			C470.012,1153.1,518.021,991.413,738.83,849.727c93.801-60.188,216.638-133.666,312.834-189.938
			c82.135-48.04,159.602-114.861,196.555-200.847c-17.923,26.214-44.021,48.296-68.267,68.262
			c-62.134,51.175-132.847,91.729-205.529,125.857c-115.055,54.025-239.026,82.354-343.571,157.978
			c-110.205,79.721-188.657,199.063-216.917,332.151c-29.045,136.807-8.718,283.586,59.386,406.035
			c73.95,132.953,200.849,226.195,346.996,265.615c56.414,15.216,115.74,23.333,176.962,23.333
			c369.188,0,669.415-295.161,677.646-662.367c0.115,5.142,0.197,10.3,0.197,15.469c0,393.046-319.911,711.36-713.555,708.777
			c-382.796-2.512-696.832-312.621-703.914-695.36c-3.118-168.315,58.906-335.316,152.034-474.059
			c120.735-179.866,311.317-285.874,507.5-365.75c219.918-89.543,356.721-166.773,346.308-299.944
			c-84.994-24.262-174.735-37.262-267.521-37.262C458.829,27.676,23.391,463.117,23.391,1000.26"/>
	</defs>
	<clipPath id="SVGID_2_">
		<use xlink:href="#SVGID_1_"  overflow="visible"/>
	</clipPath>
	<rect x="23.391" y="27.676" clip-path="url(#SVGID_2_)" fill="#000C14" width="1945.163" height="1945.166"/>
</g>
</svg>
